# xmcd
#
# Track frame offsets:
#	150
#	18698
#	37048
#	56232
#	79322
#	94220
#	112475
#	127459
#	147434
#	166504
#	184188
#	204230
#	226176
#	244843
#	263745
#	282908
#	299438
#	315944
#
# Disc length: 4464 seconds
#
# Revision: 0
# Processed by: cddbd v1.5.2PL0 Copyright (c) Steve Scherf et al.
# Submitted via: EZCDAudioConverter 3.1.7.1
#
DISCID=14116e12
DTITLE=รวมศิลปิน - ลูกผู้ชาย หัวใจเข้ม 2
DYEAR=2015
DGENRE=Country
TTITLE0=กล้วย แสตมป์ - อย่าแช่งแต่ต้องแกล้งยินดี
TTITLE1=พี สะเดิด - รักจนไม่รู้จะรักยังไง
TTITLE2=วงพัทลุง - มหาลัยวัวชน
TTITLE3=วงกางเกง - สวนทาง
TTITLE4=แสน นากา - บอกตรงๆว่ารำคาญ
TTITLE5=ตาโอ๋ วงเซอร์ - เก่าใคร ใหม่เรา
TTITLE6=แช่ม แช่มรัมย์ - เธอก็เหงา ฉันก็เหงา
TTITLE7=โกไข่ and นายสน - ตะกอนความคำถึง
TTITLE8=เต็ม นาวา - เป็นแฟนกันหม้าย
TTITLE9=ตั๊ก วชรกรณ์ - ไม่ต้องขอเป็นคนแรก แต่ขอเป็นคนสุดท้าย
TTITLE10=เสถียร ทำมือ - โชคดีที่มีเธอรัก
TTITLE11=เบิ้ล ยุทธพล - ยกล้อ
TTITLE12=กล้วย แสตมป์ - รักหมดใจ ใจหมดรัก
TTITLE13=พี สะเดิด - ขอใช้คำนี้กับเธอ
TTITLE14=เสถียร ทำมือ - ครั้งแรกที่สบตาเธอ
TTITLE15=ตั๊ก วชรกรณ์ - ความคิดถึงฝากใครมาไม่ได้
TTITLE16=เดวิด อินทรี - กำลังคิดถึงเธออยู่
TTITLE17=กล้วย แสตมป์ - ที่หนึ่งคนสุดท้าย
EXTD=
EXTT0=
EXTT1=
EXTT2=
EXTT3=
EXTT4=
EXTT5=
EXTT6=
EXTT7=
EXTT8=
EXTT9=
EXTT10=
EXTT11=
EXTT12=
EXTT13=
EXTT14=
EXTT15=
EXTT16=
EXTT17=
PLAYORDER=
